<svg width="auto" height="auto" viewBox="0 0 601 601" fill="none" xmlns="http://www.w3.org/2000/svg">
<g id="Frame 1">
<rect width="601" height="601" fill="white"/>
<g id="freddy" class="straight-face">
<g id="nose-mouth" class="nose-mouth">
<g id="nose" class="straight-nose">
<path id="Vector" d="M366 369.429C403.714 331.143 403.714 269.143 366 230.571C328.286 192.286 266.857 192.286 228.857 230.571L128.286 332.571C90.5714 370.857 90.5714 432.857 128.286 471.429C166 509.714 227.429 509.714 265.429 471.429L366 369.429Z" fill="#459FFC"/>
<path id="Vector_2" d="M471.714 471.143C509.429 432.857 509.429 370.857 471.714 332.286L371.143 230.286C333.429 192 272 192 234 230.286C228.286 236 223.714 242 219.714 248.571C196.857 286.286 201.714 336.286 234 368.857L334.571 470.857C372.286 509.143 433.714 509.143 471.714 470.857V471.143Z" fill="#459FFC"/>
<path id="Vector_3" d="M394 299.143C394 277.143 386.571 254.286 371.714 236C370.286 234 368.286 232 366.571 230C348.286 211.143 324.286 201.714 300.286 201.429C276.286 201.429 252.286 211.143 234 230C232.286 231.714 230.286 233.714 228.857 236C213.714 254.286 206.571 277.143 206.571 299.143C206.571 324 215.714 349.143 234 368L300.286 436.286L366.571 368C384.857 349.143 394 324 394 299.143Z" fill="#12344D"/>
</g>
</g>
<g id="eyes" class="eyes">
<path id="left-eye" class="left-eye" d="M178 180C200 180 218 162 218 140C218 118 200 100 178 100C156 100 138 118 138 140C138 162 156 180 178 180Z" fill="#12344D"/>
<path id="right-eye" class="right-eye" d="M422.571 180C444.571 180 462.571 162 462.571 140C462.571 118 444.571 100 422.571 100C400.571 100 382.571 118 382.571 140C382.571 162 400.571 180 422.571 180Z" fill="#12344D"/>
</g>
</g>
</g>
</svg>
